<?xml version="1.0" encoding="UTF-8" standalone="no"?>
<svg
   xmlns:dc="http://purl.org/dc/elements/1.1/"
   xmlns:cc="http://creativecommons.org/ns#"
   xmlns:rdf="http://www.w3.org/1999/02/22-rdf-syntax-ns#"
   xmlns:svg="http://www.w3.org/2000/svg"
   xmlns="http://www.w3.org/2000/svg"
   xmlns:sodipodi="http://sodipodi.sourceforge.net/DTD/sodipodi-0.dtd"
   xmlns:inkscape="http://www.inkscape.org/namespaces/inkscape"
   width="1280"
   height="720"
   style="font-family:Arial, sans-serif"
   version="1.1"
   id="svg5232"
   sodipodi:docname="rl_gene.svg"
   inkscape:version="1.0.2 (e86c870879, 2021-01-15)">
  <metadata
     id="metadata5238">
    <rdf:RDF>
      <cc:Work
         rdf:about="">
        <dc:format>image/svg+xml</dc:format>
        <dc:type
           rdf:resource="http://purl.org/dc/dcmitype/StillImage" />
        <dc:title></dc:title>
      </cc:Work>
    </rdf:RDF>
  </metadata>
  <defs
     id="defs5236">
    <rect
       x="140.17874"
       y="605.93437"
       width="976.61207"
       height="88.373859"
       id="rect7472" />
    <rect
       x="126.65199"
       y="577.91816"
       width="990.98293"
       height="123.21972"
       id="rect7466" />
    <rect
       x="153.46133"
       y="592.26112"
       width="990.21556"
       height="119.49446"
       id="rect7460" />
    <rect
       x="237.33557"
       y="599.80234"
       width="884.94546"
       height="99.263628"
       id="rect7377" />
  </defs>
  <sodipodi:namedview
     pagecolor="#ffffff"
     bordercolor="#666666"
     borderopacity="1"
     objecttolerance="10"
     gridtolerance="10"
     guidetolerance="10"
     inkscape:pageopacity="0"
     inkscape:pageshadow="2"
     inkscape:window-width="1920"
     inkscape:window-height="1016"
     id="namedview5234"
     showgrid="false"
     inkscape:zoom="0.55994358"
     inkscape:cx="709"
     inkscape:cy="566.12846"
     inkscape:window-x="0"
     inkscape:window-y="0"
     inkscape:window-maximized="1"
     inkscape:current-layer="svg5232"
     inkscape:document-rotation="0" />
  <g
     transform="matrix(1.8876045,0,0,1.8876045,1009.9944,310.74978)"
     id="g5222"
     style="stroke-width:1.00020952;stroke-miterlimit:4;stroke-dasharray:none" />
  <text
     xml:space="preserve"
     id="text7375"
     style="font-style:normal;font-variant:normal;font-weight:normal;font-stretch:normal;font-size:24px;line-height:1.25;font-family:Lato;-inkscape-font-specification:'Lato, Normal';font-variant-ligatures:normal;font-variant-caps:normal;font-variant-numeric:normal;font-variant-east-asian:normal;white-space:pre;shape-inside:url(#rect7377);"
     transform="matrix(1.2539476,0,0,1,-180.96406,0)" />
  <text
     xml:space="preserve"
     id="text7458"
     style="line-height:1.25;font-family:Lato;font-size:39.99987411px;-inkscape-font-specification:'Lato, Normal';white-space:pre;shape-inside:url(#rect7460);" />
  <text
     xml:space="preserve"
     id="text7464"
     style="line-height:1.25;font-family:Lato;font-size:39.99987411px;-inkscape-font-specification:'Lato, Normal';white-space:pre;shape-inside:url(#rect7466);" />
  <text
     xml:space="preserve"
     id="text7470"
     style="line-height:1.25;font-family:Lato;font-size:24px;-inkscape-font-specification:'Lato, Normal';white-space:pre;shape-inside:url(#rect7472);font-weight:normal;font-style:normal;font-stretch:normal;font-variant:normal;font-variant-ligatures:normal;font-variant-caps:normal;font-variant-numeric:normal;font-variant-east-asian:normal;"><tspan
       x="140.17969"
       y="628.25359"><tspan>G: tumor genetics; MSI: microsatellite instability; NPGSF: Non-pathologic/genetic survival </tspan></tspan><tspan
       x="140.17969"
       y="658.25359"><tspan>factors; PF: patient factors; RL: tumor site; SM: Surgical margin; TNM: Tumor stage. Grey: </tspan></tspan><tspan
       x="140.17969"
       y="688.25359"><tspan>unobserved variable; Blue: ancestor of outcome; Maroon: outcome; White: adjusted variable.</tspan></tspan></text>
  <g
     id="g12672"
     style="font-family:Arial, sans-serif"
     transform="translate(-173.8246,101.23718)">
    <g
       class="path"
       id="g11728"
       transform="matrix(1.886618,0,0,1.8922714,-315.4428,-55.162396)">
      <path
         stroke="#000000"
         stroke-width="1.5"
         fill="none"
         d="m 595.94,142.07 173.64,-2.02"
         id="path11724" />
      <path
         stroke="#000000"
         stroke-width="1.5"
         fill="#ffffff"
         class="arrowfront"
         d="M -1,0 15,5 V -5 Z"
         transform="rotate(179.33559,384.38482,72.258323)"
         id="path11726" />
    </g>
    <g
       class="path"
       id="g11734"
       transform="matrix(1.886618,0,0,1.8922714,-315.4428,-55.162396)">
      <path
         stroke="#000000"
         stroke-width="1.5"
         fill="none"
         d="M 560.61,132.64 Q 530.97,109.71 555.39,90"
         id="path11730" />
      <path
         stroke="#000000"
         stroke-width="1.5"
         fill="#ffffff"
         class="arrowfront"
         d="M -1,0 15,5 V -5 Z"
         transform="rotate(141.09103,261.79764,143.08861)"
         id="path11732" />
    </g>
    <g
       class="path"
       id="g11740"
       transform="matrix(1.886618,0,0,1.8922714,-315.4428,-55.162396)">
      <path
         stroke="#4dac26"
         stroke-width="1.5"
         fill="none"
         d="m 519.63,219.58 42.1,-60.98"
         id="path11736" />
      <path
         stroke="#4dac26"
         stroke-width="1.5"
         fill="#ffffff"
         class="arrowfront"
         d="M -1,0 15,5 V -5 Z"
         transform="rotate(124.62169,239.24911,226.68726)"
         id="path11738" />
    </g>
    <g
       class="path"
       id="g11746"
       transform="matrix(1.886618,0,0,1.8922714,-315.4428,-55.162396)">
      <path
         stroke="#000000"
         stroke-width="1.5"
         fill="none"
         d="M 527.62,227.28 Q 736.07,165.5 772.1,148.42"
         id="path11742" />
      <path
         stroke="#000000"
         stroke-width="1.5"
         fill="#ffffff"
         class="arrowfront"
         d="M -1,0 15,5 V -5 Z"
         transform="rotate(154.64363,369.354,161.05671)"
         id="path11744" />
    </g>
    <g
       class="path"
       id="g11752"
       transform="matrix(1.886618,0,0,1.8922714,-315.4428,-55.162396)">
      <path
         stroke="#000000"
         stroke-width="1.5"
         fill="none"
         d="m 808.11,211.62 q 58.93,-52.65 10.45,-66.25"
         id="path11748" />
      <path
         stroke="#000000"
         stroke-width="1.5"
         fill="#ffffff"
         class="arrowfront"
         d="M -1,0 15,5 V -5 Z"
         transform="rotate(15.672194,-118.84632,3046.5786)"
         id="path11750" />
    </g>
    <g
       class="path"
       id="g11758"
       transform="matrix(1.886618,0,0,1.8922714,-315.4428,-55.162396)">
      <path
         stroke="#000000"
         stroke-width="1.5"
         fill="none"
         d="M 421.48,160.58 551.15,144.81"
         id="path11754" />
      <path
         stroke="#000000"
         stroke-width="1.5"
         fill="#ffffff"
         class="arrowfront"
         d="M -1,0 15,5 V -5 Z"
         transform="rotate(173.06614,271.19036,89.100428)"
         id="path11756" />
    </g>
    <g
       class="path"
       id="g11764"
       transform="matrix(1.886618,0,0,1.8922714,-315.4428,-55.162396)">
      <path
         stroke="#000000"
         stroke-width="1.5"
         fill="none"
         d="m 417.65,171.63 70.7,49.03"
         id="path11760" />
      <path
         stroke="#000000"
         stroke-width="1.5"
         fill="#ffffff"
         class="arrowfront"
         d="M -1,0 15,5 V -5 Z"
         transform="rotate(-145.25643,278.6905,33.944556)"
         id="path11762" />
    </g>
    <g
       class="path"
       id="g11770"
       transform="matrix(1.886618,0,0,1.8922714,-315.4428,-55.162396)">
      <path
         stroke="#4dac26"
         stroke-width="1.5"
         fill="none"
         d="m 435.56,84.1 117.6,50.05"
         id="path11766" />
      <path
         stroke="#4dac26"
         stroke-width="1.5"
         fill="#ffffff"
         class="arrowfront"
         d="M -1,0 15,5 V -5 Z"
         transform="rotate(-156.9444,290.26294,10.665282)"
         id="path11768" />
    </g>
    <g
       class="path"
       id="g11776"
       transform="matrix(1.886618,0,0,1.8922714,-315.4428,-55.162396)">
      <path
         stroke="#4dac26"
         stroke-width="1.5"
         fill="none"
         d="M 404.14,88.83 Q 279.02,211.96 483.81,230.21"
         id="path11772" />
      <path
         stroke="#4dac26"
         stroke-width="1.5"
         fill="#ffffff"
         class="arrowfront"
         d="M -1,0 15,5 V -5 Z"
         transform="rotate(-174.90572,247.02449,104.34579)"
         id="path11774" />
    </g>
    <g
       class="path"
       id="g11782"
       transform="matrix(1.886618,0,0,1.8922714,-315.4428,-55.162396)">
      <path
         stroke="#000000"
         stroke-width="1.5"
         fill="none"
         d="M 437.49,77.66 H 549.9"
         id="path11778" />
      <path
         stroke="#000000"
         stroke-width="1.5"
         fill="#ffffff"
         class="arrowfront"
         d="M -1,0 15,5 V -5 Z"
         transform="rotate(180,274.95213,38.830635)"
         id="path11780" />
    </g>
    <g
       class="path"
       id="g11788"
       transform="matrix(1.886618,0,0,1.8922714,-315.4428,-55.162396)">
      <path
         stroke="#000000"
         stroke-width="1.5"
         fill="none"
         d="M 745.58,82.56 Q 775,90 785.97,121.08"
         id="path11784" />
      <path
         stroke="#000000"
         stroke-width="1.5"
         fill="#ffffff"
         class="arrowfront"
         d="M -1,0 15,5 V -5 Z"
         transform="rotate(-109.44206,435.81648,-217.49274)"
         id="path11786" />
    </g>
    <g
       class="path"
       id="g11794"
       transform="matrix(1.886618,0,0,1.8922714,-315.4428,-55.162396)">
      <path
         stroke="#000000"
         stroke-width="1.5"
         fill="none"
         d="m 594.9,77.77 106.38,0.69"
         id="path11790" />
      <path
         stroke="#000000"
         stroke-width="1.5"
         fill="#ffffff"
         class="arrowfront"
         d="M -1,0 15,5 V -5 Z"
         transform="rotate(-179.62904,350.76856,38.094083)"
         id="path11792" />
    </g>
    <g
       class="path"
       id="g11800"
       transform="matrix(1.886618,0,0,1.8922714,-315.4428,-55.162396)">
      <path
         stroke="#000000"
         stroke-width="1.5"
         fill="none"
         d="M 593.9,82.37 770.73,133.9"
         id="path11796" />
      <path
         stroke="#000000"
         stroke-width="1.5"
         fill="#ffffff"
         class="arrowfront"
         d="M -1,0 15,5 V -5 Z"
         transform="rotate(-163.75505,394.92085,11.947724)"
         id="path11798" />
    </g>
    <path
       fill-opacity="0.7"
       stroke-width="2"
       z-index="1"
       d="M 0,0 M 20,0 A 20,15 0 1 1 -20,0 20,15 0 1 1 20,0"
       fill="#00a2e0"
       stroke="#000000"
       id="path11802"
       style="font-family:Arial, sans-serif;fill:#aa0000;fill-opacity:0.7"
       transform="matrix(1.886618,0,0,1.8922714,771.1461,214.04339)" />
    <rect
       class="textbg"
       fill="#ffffff"
       width="12.46875"
       height="17"
       x="-6.234375"
       y="21"
       id="rect11804"
       style="font-family:Arial, sans-serif"
       transform="matrix(1.886618,0,0,1.8922714,771.1461,214.04339)" />
    <text
       class="nodelabel"
       y="35"
       text-anchor="middle"
       id="text11806"
       style="font-family:Arial, sans-serif"
       transform="matrix(1.886618,0,0,1.8922714,771.1461,214.04339)">G</text>
    <path
       d="M -2,-6 H 2 V 6 h -4 z"
       fill="#000000"
       id="path11808"
       style="font-family:Arial, sans-serif"
       transform="matrix(1.886618,0,0,1.8922714,771.1461,214.04339)" />
    <g
       transform="matrix(1.886618,0,0,1.8922714,644.25955,384.10186)"
       id="g11818">
      <path
         fill-opacity="0.7"
         stroke-width="2"
         z-index="1"
         d="M 0,0 M 20,0 A 20,15 0 1 1 -20,0 20,15 0 1 1 20,0"
         fill="#00a2e0"
         stroke="#00a2e0"
         id="path11812" />
      <rect
         class="textbg"
         fill="#ffffff"
         width="28.46875"
         height="17"
         x="-14.234375"
         y="21"
         id="rect11814" />
      <text
         class="nodelabel"
         y="35"
         text-anchor="middle"
         id="text11816">MSI</text>
    </g>
    <g
       transform="matrix(1.886618,0,0,1.8922714,1182.4471,365.33127)"
       id="g11826">
      <path
         fill-opacity="0.7"
         stroke-width="2"
         z-index="1"
         d="M 0,0 M 20,0 A 20,15 0 1 1 -20,0 20,15 0 1 1 20,0"
         fill="#dddddd"
         stroke="#aaaaaa"
         id="path11820" />
      <rect
         class="textbg"
         fill="#ffffff"
         width="55.359375"
         height="17"
         x="-27.5625"
         y="21"
         id="rect11822" />
      <text
         class="nodelabel"
         y="35"
         text-anchor="middle"
         id="text11824">NPGSF</text>
    </g>
    <g
       transform="matrix(1.886618,0,0,1.8922714,442.34102,252.5472)"
       id="g11834">
      <path
         fill-opacity="0.7"
         stroke-width="2"
         z-index="1"
         d="M 0,0 M 20,0 A 20,15 0 1 1 -20,0 20,15 0 1 1 20,0"
         fill="#dddddd"
         stroke="#aaaaaa"
         id="path11828" />
      <rect
         class="textbg"
         fill="#ffffff"
         width="20.6875"
         height="17"
         x="-10.234375"
         y="21"
         id="rect11830" />
      <text
         class="nodelabel"
         y="35"
         text-anchor="middle"
         id="text11832">PF</text>
    </g>
    <g
       transform="matrix(1.886618,0,0,1.8922714,472.19667,91.7938)"
       id="g11844">
      <path
         fill-opacity="0.7"
         stroke-width="2"
         z-index="1"
         d="M 0,0 M 20,0 A 20,15 0 1 1 -20,0 20,15 0 1 1 20,0"
         fill="#bed403"
         stroke="#000000"
         id="path11836" />
      <rect
         class="textbg"
         fill="#ffffff"
         width="20.5625"
         height="17"
         x="-10.234375"
         y="21"
         id="rect11838" />
      <text
         class="nodelabel"
         y="35"
         text-anchor="middle"
         id="text11840">RL</text>
      <path
         d="M -4,-6 7,0 -4,6 Z"
         fill="#000000"
         id="path11842" />
    </g>
    <g
       transform="matrix(1.886618,0,0,1.8922714,1054.7749,93.558557)"
       id="g11852">
      <path
         fill-opacity="0.7"
         stroke-width="2"
         z-index="1"
         d="M 0,0 M 20,0 A 20,15 0 1 1 -20,0 20,15 0 1 1 20,0"
         fill="#aaaaaa"
         stroke="#666666"
         id="path11846" />
      <rect
         class="textbg"
         fill="#ffffff"
         width="24"
         height="17"
         x="-12"
         y="21"
         id="rect11848" />
      <text
         class="nodelabel"
         y="35"
         text-anchor="middle"
         id="text11850">SM</text>
    </g>
    <g
       transform="matrix(1.886618,0,0,1.8922714,1183.6256,209.39085)"
       id="g11860">
      <path
         fill-opacity="0.7"
         stroke-width="2"
         z-index="1"
         d="M 0,0 M 20,0 A 20,15 0 1 1 -20,0 20,15 0 1 1 20,0"
         fill="#aaaaaa"
         stroke="#666666"
         id="path11854" />
      <rect
         class="textbg"
         fill="#ffffff"
         width="56.90625"
         height="17"
         x="-28.453125"
         y="21"
         id="rect11856" />
      <text
         class="nodelabel"
         y="35"
         text-anchor="middle"
         id="text11858">Survival</text>
    </g>
    <g
       transform="matrix(1.886618,0,0,1.8922714,769.18193,91.7938)"
       id="g11868">
      <path
         fill-opacity="0.7"
         stroke-width="2"
         z-index="1"
         d="M 0,0 M 20,0 A 20,15 0 1 1 -20,0 20,15 0 1 1 20,0"
         fill="#aaaaaa"
         stroke="#666666"
         id="path11862" />
      <rect
         class="textbg"
         fill="#ffffff"
         width="34.65625"
         height="17"
         x="-17.328125"
         y="21"
         id="rect11864" />
      <text
         class="nodelabel"
         y="35"
         text-anchor="middle"
         id="text11866">TNM</text>
    </g>
  </g>
</svg>
