<svg xmlns="http://www.w3.org/2000/svg" xmlns:xlink="http://www.w3.org/1999/xlink" xmlns:lucid="lucid" width="940" height="1093.9"><g transform="translate(-300 -20)" lucid:page-tab-id="0_0"><path d="M320 46c0-3.3 2.7-6 6-6h308c3.3 0 6 2.7 6 6v63.74c0 3.3-2.7 6-6 6H326c-3.3 0-6-2.7-6-6z" stroke="#5e5e5e" stroke-width="3" fill="#fff"/><use xlink:href="#a" transform="matrix(1,0,0,1,332,52) translate(3.061848958333343 33.627170138888886)"/><use xlink:href="#b" transform="matrix(1,0,0,1,332,52) translate(115.09526909722223 33.627170138888886)"/><use xlink:href="#c" transform="matrix(1,0,0,1,332,52) translate(201.97677951388889 33.627170138888886)"/><use xlink:href="#d" transform="matrix(1,0,0,1,332,52) translate(229.77625868055554 33.627170138888886)"/><use xlink:href="#e" transform="matrix(1,0,0,1,332,52) translate(247.97287326388889 33.627170138888886)"/><path d="M320 306c0-3.3 2.7-6 6-6h308c3.3 0 6 2.7 6 6v63.74c0 3.3-2.7 6-6 6H326c-3.3 0-6-2.7-6-6z" stroke="#5e5e5e" stroke-width="3" fill="#fff"/><use xlink:href="#f" transform="matrix(1,0,0,1,332,312) translate(33.70421006944446 20.62717013888889)"/><use xlink:href="#g" transform="matrix(1,0,0,1,332,312) translate(127.2263454861111 20.62717013888889)"/><use xlink:href="#h" transform="matrix(1,0,0,1,332,312) translate(214.10785590277777 20.62717013888889)"/><use xlink:href="#i" transform="matrix(1,0,0,1,332,312) translate(28.696614583333343 46.49522569444444)"/><use xlink:href="#j" transform="matrix(1,0,0,1,332,312) translate(124.30208333333334 46.49522569444444)"/><use xlink:href="#k" transform="matrix(1,0,0,1,332,312) translate(176.34201388888889 46.49522569444444)"/><use xlink:href="#l" transform="matrix(1,0,0,1,332,312) translate(204.14149305555554 46.49522569444444)"/><use xlink:href="#m" transform="matrix(1,0,0,1,332,312) translate(222.33810763888889 46.49522569444444)"/><path d="M320 586c0-3.3 2.7-6 6-6h308c3.3 0 6 2.7 6 6v63.74c0 3.3-2.7 6-6 6H326c-3.3 0-6-2.7-6-6z" stroke="#5e5e5e" stroke-width="3" fill="#fff"/><use xlink:href="#n" transform="matrix(1,0,0,1,332,592) translate(1.9822048611110858 20.62717013888889)"/><use xlink:href="#o" transform="matrix(1,0,0,1,332,592) translate(63.32118055555553 20.62717013888889)"/><use xlink:href="#p" transform="matrix(1,0,0,1,332,592) translate(109.5776909722222 20.62717013888889)"/><use xlink:href="#q" transform="matrix(1,0,0,1,332,592) translate(212.90885416666666 20.62717013888889)"/><use xlink:href="#k" transform="matrix(1,0,0,1,332,592) translate(102.51931423611111 46.49522569444444)"/><use xlink:href="#l" transform="matrix(1,0,0,1,332,592) translate(130.31879340277777 46.49522569444444)"/><use xlink:href="#r" transform="matrix(1,0,0,1,332,592) translate(148.51540798611111 46.49522569444444)"/><path d="M320 1024.17c0-3.32 2.7-6 6-6h308c3.3 0 6 2.68 6 6v63.73c0 3.32-2.7 6-6 6H326c-3.3 0-6-2.68-6-6z" stroke="#5e5e5e" stroke-width="3" fill="#fff"/><use xlink:href="#s" transform="matrix(1,0,0,1,332,1030.1666666666667) translate(0 33.627170138888886)"/><use xlink:href="#t" transform="matrix(1,0,0,1,332,1030.1666666666667) translate(99.2404513888889 33.627170138888886)"/><use xlink:href="#c" transform="matrix(1,0,0,1,332,1030.1666666666667) translate(174.00173611111111 33.627170138888886)"/><use xlink:href="#d" transform="matrix(1,0,0,1,332,1030.1666666666667) translate(201.80121527777777 33.627170138888886)"/><use xlink:href="#u" transform="matrix(1,0,0,1,332,1030.1666666666667) translate(219.99782986111111 33.627170138888886)"/><path d="M540 166c0-3.3 2.7-6 6-6h408c3.3 0 6 2.7 6 6v89.6c0 3.32-2.7 6-6 6H546c-3.3 0-6-2.68-6-6z" stroke="#5e5e5e" stroke-width="3" fill="#fff"/><use xlink:href="#v" transform="matrix(1,0,0,1,552,172) translate(0 20.62717013888889)"/><use xlink:href="#c" transform="matrix(1,0,0,1,552,172) translate(103.12500000000001 20.62717013888889)"/><use xlink:href="#d" transform="matrix(1,0,0,1,552,172) translate(130.92447916666669 20.62717013888889)"/><use xlink:href="#w" transform="matrix(1,0,0,1,552,172) translate(149.12109375000003 20.62717013888889)"/><use xlink:href="#x" transform="matrix(1,0,0,1,552,172) translate(7.090928819444444 46.49522569444444)"/><use xlink:href="#y" transform="matrix(1,0,0,1,552,172) translate(22.22222222222222 46.49522569444444)"/><use xlink:href="#z" transform="matrix(1,0,0,1,552,172) translate(166.75347222222223 46.49522569444444)"/><use xlink:href="#c" transform="matrix(1,0,0,1,552,172) translate(248.77387152777777 46.49522569444444)"/><use xlink:href="#d" transform="matrix(1,0,0,1,552,172) translate(276.57335069444446 46.49522569444444)"/><use xlink:href="#A" transform="matrix(1,0,0,1,552,172) translate(294.76996527777777 46.49522569444444)"/><use xlink:href="#x" transform="matrix(1,0,0,1,552,172) translate(7.090928819444444 72.36328125)"/><use xlink:href="#B" transform="matrix(1,0,0,1,552,172) translate(22.22222222222222 72.36328125)"/><use xlink:href="#C" transform="matrix(1,0,0,1,552,172) translate(109.39670138888889 72.36328125)"/><use xlink:href="#c" transform="matrix(1,0,0,1,552,172) translate(215.02821180555554 72.36328125)"/><use xlink:href="#d" transform="matrix(1,0,0,1,552,172) translate(242.8276909722222 72.36328125)"/><use xlink:href="#D" transform="matrix(1,0,0,1,552,172) translate(261.02430555555554 72.36328125)"/><path d="M480 118.24V280" stroke="#5e5e5e" stroke-width="2" fill="none"/><path d="M481 118.26h-2v-1.02h2z" fill="#5e5e5e"/><path d="M480 295.26L475.36 281h9.28z" stroke="#5e5e5e" stroke-width="2" fill="#5e5e5e"/><path d="M480 378.24V560" stroke="#5e5e5e" stroke-width="2" fill="none"/><path d="M481 378.26h-2v-1.02h2z" fill="#5e5e5e"/><path d="M480 575.26L475.36 561h9.28z" stroke="#5e5e5e" stroke-width="2" fill="#5e5e5e"/><path d="M480 658.24v339.92" stroke="#5e5e5e" stroke-width="2" fill="none"/><path d="M481 658.26h-2v-1.02h2z" fill="#5e5e5e"/><path d="M480 1013.43l-4.64-14.27h9.28z" stroke="#5e5e5e" stroke-width="2" fill="#5e5e5e"/><path d="M540 420.13c0-3.3 2.7-6 6-6h408c3.3 0 6 2.7 6 6V535.6c0 3.32-2.7 6-6 6H546c-3.3 0-6-2.68-6-6z" stroke="#5e5e5e" stroke-width="3" fill="#fff"/><g><use xlink:href="#v" transform="matrix(1,0,0,1,552,426.1319444444444) translate(0 20.62717013888889)"/><use xlink:href="#E" transform="matrix(1,0,0,1,552,426.1319444444444) translate(103.12500000000001 20.62717013888889)"/><use xlink:href="#F" transform="matrix(1,0,0,1,552,426.1319444444444) translate(166.015625 20.62717013888889)"/><use xlink:href="#G" transform="matrix(1,0,0,1,552,426.1319444444444) translate(242.87109375 20.62717013888889)"/><use xlink:href="#c" transform="matrix(1,0,0,1,552,426.1319444444444) translate(295.30164930555554 20.62717013888889)"/><use xlink:href="#d" transform="matrix(1,0,0,1,552,426.1319444444444) translate(323.10112847222223 20.62717013888889)"/><use xlink:href="#H" transform="matrix(1,0,0,1,552,426.1319444444444) translate(341.29774305555554 20.62717013888889)"/><use xlink:href="#x" transform="matrix(1,0,0,1,552,426.1319444444444) translate(7.090928819444444 46.49522569444444)"/><use xlink:href="#I" transform="matrix(1,0,0,1,552,426.1319444444444) translate(22.22222222222222 46.49522569444444)"/><use xlink:href="#c" transform="matrix(1,0,0,1,552,426.1319444444444) translate(92.17664930555554 46.49522569444444)"/><use xlink:href="#d" transform="matrix(1,0,0,1,552,426.1319444444444) translate(119.9761284722222 46.49522569444444)"/><use xlink:href="#J" transform="matrix(1,0,0,1,552,426.1319444444444) translate(138.17274305555554 46.49522569444444)"/><use xlink:href="#x" transform="matrix(1,0,0,1,552,426.1319444444444) translate(7.090928819444444 72.36328125)"/><use xlink:href="#K" transform="matrix(1,0,0,1,552,426.1319444444444) translate(22.22222222222222 72.36328125)"/><use xlink:href="#c" transform="matrix(1,0,0,1,552,426.1319444444444) translate(145.67057291666666 72.36328125)"/><use xlink:href="#d" transform="matrix(1,0,0,1,552,426.1319444444444) translate(173.47005208333331 72.36328125)"/><use xlink:href="#L" transform="matrix(1,0,0,1,552,426.1319444444444) translate(191.66666666666666 72.36328125)"/><use xlink:href="#x" transform="matrix(1,0,0,1,552,426.1319444444444) translate(7.090928819444444 98.23133680555556)"/><use xlink:href="#B" transform="matrix(1,0,0,1,552,426.1319444444444) translate(22.22222222222222 98.23133680555556)"/><use xlink:href="#c" transform="matrix(1,0,0,1,552,426.1319444444444) translate(109.39670138888889 98.23133680555556)"/><use xlink:href="#d" transform="matrix(1,0,0,1,552,426.1319444444444) translate(137.19618055555554 98.23133680555556)"/><use xlink:href="#M" transform="matrix(1,0,0,1,552,426.1319444444444) translate(155.39279513888889 98.23133680555556)"/></g><path d="M540 700.13c0-3.3 2.7-6 6-6h408c3.3 0 6 2.7 6 6v75.25c0 3.3-2.7 6-6 6H546c-3.3 0-6-2.7-6-6z" stroke="#5e5e5e" stroke-width="3" fill="#fff"/><g><use xlink:href="#v" transform="matrix(1,0,0,1,552,706.1319444444445) translate(0 28.62717013888889)"/><use xlink:href="#N" transform="matrix(1,0,0,1,552,706.1319444444445) translate(103.12500000000001 28.62717013888889)"/><use xlink:href="#O" transform="matrix(1,0,0,1,552,706.1319444444445) translate(155.23003472222223 28.62717013888889)"/><use xlink:href="#P" transform="matrix(1,0,0,1,552,706.1319444444445) translate(261.9900173611111 28.62717013888889)"/><use xlink:href="#Q" transform="matrix(1,0,0,1,552,706.1319444444445) translate(0 54.49522569444444)"/><use xlink:href="#d" transform="matrix(1,0,0,1,552,706.1319444444445) translate(27.799479166666664 54.49522569444444)"/><use xlink:href="#R" transform="matrix(1,0,0,1,552,706.1319444444445) translate(45.99609375 54.49522569444444)"/></g><path d="M500 825.77c0-3.3 2.7-6 6-6h308c3.3 0 6 2.7 6 6v148c0 3.3-2.7 6-6 6H506c-3.3 0-6-2.7-6-6z" fill="none"/><path d="M500 979.77c5.52 0 10-4.48 10-10v-60c0-5.52 4.48-10 10-10-5.52 0-10-4.48-10-10v-60c0-5.52-4.48-10-10-10" stroke="#5e5e5e" stroke-width="3" fill="none"/><g><use xlink:href="#S" transform="matrix(1,0,0,1,535,824.7708333333334) translate(0 30.957031250000004)"/><use xlink:href="#T" transform="matrix(1,0,0,1,535,824.7708333333334) translate(124.66362847222223 30.957031250000004)"/><use xlink:href="#U" transform="matrix(1,0,0,1,535,824.7708333333334) translate(161.71875 30.957031250000004)"/><use xlink:href="#x" transform="matrix(1,0,0,1,535,824.7708333333334) translate(7.090928819444444 56.82508680555556)"/><use xlink:href="#V" transform="matrix(1,0,0,1,535,824.7708333333334) translate(22.22222222222222 56.82508680555556)"/><use xlink:href="#W" transform="matrix(1,0,0,1,535,824.7708333333334) translate(22.22222222222222 82.69314236111111)"/><use xlink:href="#c" transform="matrix(1,0,0,1,535,824.7708333333334) translate(118.20746527777777 82.69314236111111)"/><use xlink:href="#d" transform="matrix(1,0,0,1,535,824.7708333333334) translate(146.00694444444443 82.69314236111111)"/><use xlink:href="#X" transform="matrix(1,0,0,1,535,824.7708333333334) translate(164.20355902777777 82.69314236111111)"/><use xlink:href="#x" transform="matrix(1,0,0,1,535,824.7708333333334) translate(7.090928819444444 108.56119791666667)"/><use xlink:href="#Y" transform="matrix(1,0,0,1,535,824.7708333333334) translate(22.22222222222222 108.56119791666667)"/><use xlink:href="#Z" transform="matrix(1,0,0,1,535,824.7708333333334) translate(48.83897569444444 108.56119791666667)"/><use xlink:href="#c" transform="matrix(1,0,0,1,535,824.7708333333334) translate(108.60460069444444 108.56119791666667)"/><use xlink:href="#d" transform="matrix(1,0,0,1,535,824.7708333333334) translate(136.40407986111111 108.56119791666667)"/><use xlink:href="#aa" transform="matrix(1,0,0,1,535,824.7708333333334) translate(154.60069444444446 108.56119791666667)"/><use xlink:href="#x" transform="matrix(1,0,0,1,535,824.7708333333334) translate(7.090928819444444 134.42925347222223)"/><use xlink:href="#ab" transform="matrix(1,0,0,1,535,824.7708333333334) translate(22.22222222222222 134.42925347222223)"/><use xlink:href="#ac" transform="matrix(1,0,0,1,535,824.7708333333334) translate(113.62847222222223 134.42925347222223)"/><use xlink:href="#c" transform="matrix(1,0,0,1,535,824.7708333333334) translate(196.56032986111111 134.42925347222223)"/><use xlink:href="#d" transform="matrix(1,0,0,1,535,824.7708333333334) translate(224.35980902777777 134.42925347222223)"/><use xlink:href="#ad" transform="matrix(1,0,0,1,535,824.7708333333334) translate(242.55642361111111 134.42925347222223)"/></g><path d="M481 213.15l39-.34M481.03 213.15H480" stroke="#5e5e5e" stroke-width="2" fill="none"/><path d="M535.26 212.67l-14.22 4.76-.08-9.27z" stroke="#5e5e5e" stroke-width="2" fill="#5e5e5e"/><path d="M481 477.1h39M481.03 477.1H480" stroke="#5e5e5e" stroke-width="2" fill="none"/><path d="M535.26 477.1L521 481.74v-9.27z" stroke="#5e5e5e" stroke-width="2" fill="#5e5e5e"/><path d="M481 740h39M481.03 740H480" stroke="#5e5e5e" stroke-width="2" fill="none"/><path d="M535.26 740L521 744.64v-9.28z" stroke="#5e5e5e" stroke-width="2" fill="#5e5e5e"/><defs><path fill="#333" d="M1141-289c47 27 51 110 13 159C1076-28 927 20 739 20c-439 0-622-310-622-753 0-346 130-585 372-695 199-90 579-71 673 84 39 64 27 161-25 196-32 21-74 38-127 38-5-158-78-264-240-264-349 0-426 285-426 641 0 266 62 478 232 573 54 30 119 45 194 45 183 1 293-72 371-174" id="ae"/><path fill="#333" d="M594-1118c338 0 472 222 475 567 2 360-143 571-481 571S115-205 113-551c-2-359 142-567 481-567zm-4 108c-241 0-279 212-279 459 0 249 39 465 281 465s278-216 278-465c0-248-38-459-280-459" id="af"/><path fill="#333" d="M414-233c-4 120 72 154 194 147V0H27v-86c122 7 194-28 194-147v-1098c3-115-76-146-194-139v-86h387v1323" id="ag"/><path fill="#333" d="M434-223C430-95 529-79 659-86V0H68v-86c112 4 174-35 174-147v-639c2-108-66-143-174-140v-86h315l39 203h10c50-120 106-223 281-223 151 0 257 68 211 208-21 64-90 87-181 87-2-101-16-160-108-160-128 0-157 140-183 255-33 148-12 333-18 505" id="ah"/><path fill="#333" d="M786-645c-4-191-36-363-223-363-76 0-134 30-175 92s-66 152-73 271h471zm123 393c43 21 51 90 17 136C862-29 744 20 588 20c-331 0-471-225-475-561-4-348 134-577 454-577 327 0 443 231 426 583H311c7 242 67 426 305 426 140 0 234-60 293-143" id="ai"/><path fill="#333" d="M893-256c39 28 47 103 13 150C845-22 730 20 580 20c-332 0-467-220-467-563 0-349 119-575 456-575 140 0 259 39 325 116 44 51 42 161-14 193-31 18-76 29-137 29-1-134-38-239-174-236-232 6-258 224-258 471 0 264 65 427 310 432 127 2 227-62 272-143" id="aj"/><path fill="#333" d="M387-291c-2 124 47 200 156 203 51 1 88-6 131-14v90C626 8 560 18 492 20 278 25 195-83 195-297v-684H39v-82c170-8 224-133 254-287h94v252h268v117H387v690" id="ak"/><path fill="#333" d="M467-106c176 0 267-107 272-285v-166c-189 6-378 9-423 154-10 31-15 66-15 106 0 123 47 191 166 191zm272-535c5-199 13-375-190-375-142 0-190 83-187 223-106-2-174-27-174-129 0-169 191-191 369-196 250-7 375 104 375 354v531c-3 100 32 153 133 147V0H788l-32-176h-17C664-76 596 23 420 20 213 16 102-97 102-307c0-109 41-186 116-242 100-75 325-89 521-92" id="al"/><g id="a"><use transform="matrix(0.010850694444444444,0,0,0.010850694444444444,0,0)" xlink:href="#ae"/><use transform="matrix(0.010850694444444444,0,0,0.010850694444444444,13.194444444444445,0)" xlink:href="#af"/><use transform="matrix(0.010850694444444444,0,0,0.010850694444444444,26.01996527777778,0)" xlink:href="#ag"/><use transform="matrix(0.010850694444444444,0,0,0.010850694444444444,32.91015625,0)" xlink:href="#af"/><use transform="matrix(0.010850694444444444,0,0,0.010850694444444444,45.73567708333333,0)" xlink:href="#ah"/><use transform="matrix(0.010850694444444444,0,0,0.010850694444444444,56.20659722222221,0)" xlink:href="#ai"/><use transform="matrix(0.010850694444444444,0,0,0.010850694444444444,68.09895833333333,0)" xlink:href="#aj"/><use transform="matrix(0.010850694444444444,0,0,0.010850694444444444,79.03645833333333,0)" xlink:href="#ak"/><use transform="matrix(0.010850694444444444,0,0,0.010850694444444444,86.85980902777777,0)" xlink:href="#al"/><use transform="matrix(0.010850694444444444,0,0,0.010850694444444444,99.37065972222221,0)" xlink:href="#ag"/></g><path fill="#333" d="M434-223c-3 108 66 141 174 137V0H57v-86c118 6 185-31 185-147v-639c2-108-66-143-174-140v-86h331l27 166h10c63-113 148-188 320-186 244 3 343 152 344 401v484c-4 110 54 152 164 147V0H907v-707c0-170-55-282-225-280-187 3-248 145-248 332v432" id="am"/><path fill="#333" d="M834-301C834-70 665 20 430 20 250 20 92-26 92-197c0-88 47-135 129-141 1 157 63 257 221 260 156 3 257-97 214-252-47-85-142-109-240-157-153-75-310-122-310-340 0-212 169-289 386-289 130 0 232 36 280 116 31 53 24 126-20 162-26 22-62 33-109 33 0-130-49-217-176-217-120 1-195 48-195 164 0 149 143 163 254 217 154 74 308 124 308 340" id="an"/><g id="b"><use transform="matrix(0.010850694444444444,0,0,0.010850694444444444,0,0)" xlink:href="#aj"/><use transform="matrix(0.010850694444444444,0,0,0.010850694444444444,10.9375,0)" xlink:href="#al"/><use transform="matrix(0.010850694444444444,0,0,0.010850694444444444,23.448350694444443,0)" xlink:href="#am"/><use transform="matrix(0.010850694444444444,0,0,0.010850694444444444,37.78211805555556,0)" xlink:href="#aj"/><use transform="matrix(0.010850694444444444,0,0,0.010850694444444444,48.71961805555556,0)" xlink:href="#ai"/><use transform="matrix(0.010850694444444444,0,0,0.010850694444444444,60.61197916666667,0)" xlink:href="#ah"/><use transform="matrix(0.010850694444444444,0,0,0.010850694444444444,71.08289930555556,0)" xlink:href="#an"/></g><path fill="#333" d="M643-1464c-244 139-313 433-313 815s69 678 313 817v94C288 130 117-156 117-649c0-361 84-614 285-771 67-53 147-99 241-136v92" id="ao"/><g id="c"><use transform="matrix(0.010850694444444444,0,0,0.010850694444444444,0,0)" xlink:href="#ao"/><use transform="matrix(0.010850694444444444,0,0,0.010850694444444444,7.693142361111111,0)" xlink:href="#am"/></g><path fill="#333" d="M1012-590v121H133v-121h879zm0-403v121H133v-121h879" id="ap"/><use transform="matrix(0.010850694444444444,0,0,0.010850694444444444,0,0)" xlink:href="#ap" id="d"/><path fill="#333" d="M840-1145c-2-136-46-239-181-239-103 0-180 51-233 152s-83 251-90 450c72-60 162-107 293-107 265 0 411 154 411 420 0 296-146 489-440 489-267 0-380-182-439-412-51-199-49-529 22-711 80-205 203-380 476-380 150 0 263 42 317 135 32 56 28 135-19 171-27 21-66 32-117 32zm-9 696c1-206-61-335-243-335-117 0-193 58-254 118 2 180 21 329 76 441 38 78 95 133 196 133 73 0 130-29 168-86s57-147 57-271" id="aq"/><path fill="#333" d="M248-338c6 160 98 248 260 248 204 0 305-120 305-330 0-224-191-293-436-285v-104c240 11 381-97 387-317 5-158-61-255-219-254-177 0-226 129-226 305-102 0-176-31-176-133 0-206 183-275 402-275 191 0 333 61 399 187 21 40 31 87 31 139 0 217-148 327-328 377 215 28 379 122 379 362 0 268-169 390-400 428-201 33-411-3-484-130-33-56-31-144 12-184 23-23 55-34 94-34" id="ar"/><path fill="#333" d="M389 0l483-1296H334c-73 0-113 35-119 104l-8 102h-86l10-370h916v59L543 0H389" id="as"/><path fill="#333" d="M66 168C309 28 379-267 379-649s-70-676-313-815v-92c355 132 526 415 526 907 0 361-85 617-285 775-67 53-147 99-241 136v-94" id="at"/><g id="e"><use transform="matrix(0.010850694444444444,0,0,0.010850694444444444,0,0)" xlink:href="#aq"/><use transform="matrix(0.010850694444444444,0,0,0.010850694444444444,12.42404513888889,0)" xlink:href="#ar"/><use transform="matrix(0.010850694444444444,0,0,0.010850694444444444,24.84809027777778,0)" xlink:href="#as"/><use transform="matrix(0.010850694444444444,0,0,0.010850694444444444,37.27213541666667,0)" xlink:href="#at"/></g><path fill="#333" d="M479-223C473-90 582-80 715-86V0H78v-86c122 7 194-27 194-147v-1004c3-115-76-146-194-139v-86h575c309 2 504 125 504 428 0 321-213 462-549 465H479v346zm457-803c0-225-92-342-318-338H479v698h109c246 7 348-114 348-360" id="au"/><path fill="#333" d="M434-233c-3 120 73 154 195 147V0H47v-86c118 6 195-21 195-137v-649c2-108-66-143-174-140v-86h366v865zM330-1303c-79 0-117-45-117-127s37-126 117-126c79 0 116 46 116 126 0 81-37 127-116 127" id="av"/><path fill="#333" d="M434-223c-3 108 66 141 174 137V0H57v-86c121 8 185-28 185-147v-639c3-106-58-144-164-140v-86h321l27 166h10c60-112 141-188 309-186 158 2 252 69 297 186h17c61-114 150-188 321-186 240 3 333 155 334 401v484c-3 110 54 152 164 147V0h-356v-707c0-166-49-282-215-280-172 2-228 132-228 305v449c-3 110 54 152 164 147V0H887v-707c0-166-49-282-215-280-182 3-238 148-238 332v432" id="aw"/><path fill="#333" d="M868-871c27-98-34-147-137-141v-86h426v86c-114-4-130 76-162 160C865-510 751-153 616 182c-65 163-156 280-360 302-50 6-113 8-178 8v-97c285-2 394-182 461-403L160-903c-28-65-56-114-152-109v-86h492v86c-114-14-152 77-113 174 88 217 187 419 248 662h6c62-238 163-461 227-695" id="ax"/><g id="f"><use transform="matrix(0.010850694444444444,0,0,0.010850694444444444,0,0)" xlink:href="#au"/><use transform="matrix(0.010850694444444444,0,0,0.010850694444444444,13.422309027777777,0)" xlink:href="#ah"/><use transform="matrix(0.010850694444444444,0,0,0.010850694444444444,23.893229166666664,0)" xlink:href="#av"/><use transform="matrix(0.010850694444444444,0,0,0.010850694444444444,31.000434027777775,0)" xlink:href="#aw"/><use transform="matrix(0.010850694444444444,0,0,0.010850694444444444,51.99652777777778,0)" xlink:href="#al"/><use transform="matrix(0.010850694444444444,0,0,0.010850694444444444,64.50737847222221,0)" xlink:href="#ah"/><use transform="matrix(0.010850694444444444,0,0,0.010850694444444444,75.19531249999999,0)" xlink:href="#ax"/></g><g id="g"><use transform="matrix(0.010850694444444444,0,0,0.010850694444444444,0,0)" xlink:href="#aj"/><use transform="matrix(0.010850694444444444,0,0,0.010850694444444444,10.9375,0)" xlink:href="#al"/><use transform="matrix(0.010850694444444444,0,0,0.010850694444444444,23.448350694444443,0)" xlink:href="#am"/><use transform="matrix(0.010850694444444444,0,0,0.010850694444444444,37.78211805555556,0)" xlink:href="#aj"/><use transform="matrix(0.010850694444444444,0,0,0.010850694444444444,48.71961805555556,0)" xlink:href="#ai"/><use transform="matrix(0.010850694444444444,0,0,0.010850694444444444,60.61197916666667,0)" xlink:href="#ah"/><use transform="matrix(0.010850694444444444,0,0,0.010850694444444444,71.08289930555556,0)" xlink:href="#an"/></g><path fill="#333" d="M508-1012c-85 0-151 4-150 86 0 28 11 63 17 88 59 216 125 426 168 658h6c20-100 53-202 84-293l213-619h129c98 304 212 592 293 912h6c46-231 140-457 196-684 26-106-33-156-145-148v-86h438v86c-127-12-151 65-180 160L1319 0h-164L911-721l-37-135L584 0H422L154-903c-24-68-57-114-152-109v-86h506v86" id="ay"/><path fill="#333" d="M414-223c-3 108 66 141 174 137V0H37v-86c117 6 184-31 184-147v-1098c2-112-70-144-184-139v-86h377c-3 208 7 429-8 624h10c61-124 162-186 301-186 253 1 362 144 362 401v484c-3 110 54 152 164 147V0H887v-707c0-170-55-283-225-280-186 3-248 143-248 332v432" id="az"/><g id="h"><use transform="matrix(0.010850694444444444,0,0,0.010850694444444444,0,0)" xlink:href="#ay"/><use transform="matrix(0.010850694444444444,0,0,0.010850694444444444,19.151475694444443,0)" xlink:href="#av"/><use transform="matrix(0.010850694444444444,0,0,0.010850694444444444,26.258680555555554,0)" xlink:href="#ak"/><use transform="matrix(0.010850694444444444,0,0,0.010850694444444444,34.08203125,0)" xlink:href="#az"/></g><path fill="#333" d="M956-1161c125-12 164 158 62 205-14 6-30 8-49 8 9-84-106-83-156-45 48 62 81 134 80 248-2 265-188 381-475 346-48 26-98 54-99 125-1 68 58 77 127 77h232c215 1 338 97 338 306 0 294-237 379-543 383-249 3-426-81-426-299C47 28 162-41 303-70c-62-29-113-79-113-168 0-105 57-142 134-192-112-50-185-152-185-309 0-249 134-379 385-379 97 0 179 25 234 67 49-50 103-100 198-110zM438-14c-139-3-225 52-225 194 0 158 102 212 264 211 212-1 363-46 371-248C856-58 624-10 438-14zm78-1004c-150 0-184 109-184 273 0 159 39 250 186 253 149 3 184-105 182-256-2-165-33-270-184-270" id="aA"/><g id="i"><use transform="matrix(0.010850694444444444,0,0,0.010850694444444444,0,0)" xlink:href="#aA"/><use transform="matrix(0.010850694444444444,0,0,0.010850694444444444,11.74045138888889,0)" xlink:href="#ai"/><use transform="matrix(0.010850694444444444,0,0,0.010850694444444444,23.6328125,0)" xlink:href="#am"/><use transform="matrix(0.010850694444444444,0,0,0.010850694444444444,37.966579861111114,0)" xlink:href="#af"/><use transform="matrix(0.010850694444444444,0,0,0.010850694444444444,50.79210069444444,0)" xlink:href="#aw"/><use transform="matrix(0.010850694444444444,0,0,0.010850694444444444,71.78819444444444,0)" xlink:href="#av"/><use transform="matrix(0.010850694444444444,0,0,0.010850694444444444,78.89539930555556,0)" xlink:href="#aj"/></g><path fill="#333" d="M844-1331c2-112-71-145-185-139v-86h377v1331c-2 112 71 145 185 139V0H874l-22-184h-8C786-68 701 20 530 20c-321 0-417-237-417-567 0-331 95-571 417-571 163 0 254 76 314 180h12c-10-128-14-255-12-393zM563-987c-219 0-252 212-252 442 0 145 20 254 59 326s104 108 195 108c242 2 279-192 279-436s-41-440-281-440" id="aB"/><g id="j"><use transform="matrix(0.010850694444444444,0,0,0.010850694444444444,0,0)" xlink:href="#aB"/><use transform="matrix(0.010850694444444444,0,0,0.010850694444444444,13.639322916666666,0)" xlink:href="#al"/><use transform="matrix(0.010850694444444444,0,0,0.010850694444444444,25.93315972222222,0)" xlink:href="#ak"/><use transform="matrix(0.010850694444444444,0,0,0.010850694444444444,33.756510416666664,0)" xlink:href="#al"/></g><g id="k"><use transform="matrix(0.010850694444444444,0,0,0.010850694444444444,0,0)" xlink:href="#ao"/><use transform="matrix(0.010850694444444444,0,0,0.010850694444444444,7.693142361111111,0)" xlink:href="#am"/></g><use transform="matrix(0.010850694444444444,0,0,0.010850694444444444,0,0)" xlink:href="#ap" id="l"/><path fill="#333" d="M242-307c6 142 99 207 247 207 209 0 293-131 293-346 0-207-106-317-311-320-104-1-184 14-252 45l-49-14 66-725h684l10 309h-86c-9-60-5-130-66-140-14-2-32-5-53-5H328l-39 450c63-20 141-35 239-33 286 7 467 144 467 433 0 304-187 460-495 466-133 2-233-22-307-69-48-31-80-73-80-137 0-80 45-122 129-121" id="aC"/><path fill="#333" d="M1051-391c0 285-201 411-492 411-220 0-368-84-435-236-20-47-30-97-30-151 0-223 160-295 312-374-133-80-265-171-265-375 0-251 178-367 443-367 242 0 403 117 403 353 0 204-138 274-276 346 133 65 255 138 315 270 16 37 25 78 25 123zm-758 33c0 180 95 284 276 284 178 0 295-96 295-272 0-145-92-203-192-264-45-27-102-53-168-82-116 64-211 164-211 334zm317-473c117-57 199-132 195-304-4-153-76-251-234-251-153 0-237 92-237 245 0 189 144 241 276 310" id="aD"/><path fill="#333" d="M709-233C699-82 828-79 977-86V0H197v-86h137c108 3 168-38 168-147v-1076c-64 75-120 150-204 197-78 44-169-10-163-94 181-48 304-168 443-264h131v1237" id="aE"/><g id="m"><use transform="matrix(0.010850694444444444,0,0,0.010850694444444444,0,0)" xlink:href="#aC"/><use transform="matrix(0.010850694444444444,0,0,0.010850694444444444,12.42404513888889,0)" xlink:href="#aD"/><use transform="matrix(0.010850694444444444,0,0,0.010850694444444444,24.84809027777778,0)" xlink:href="#aE"/><use transform="matrix(0.010850694444444444,0,0,0.010850694444444444,37.27213541666667,0)" xlink:href="#at"/></g><path fill="#333" d="M1155-1067c0 217-140 315-301 373l281 444c62 88 98 158 221 164V0c-166 1-292-2-364-90-20-24-43-55-66-94L649-645H479v422c-3 116 77 143 195 137V0H78v-86c117 6 194-21 194-137v-1014c3-115-76-146-194-139v-86h551c321 0 526 100 526 395zm-219 6c0-217-101-309-318-303H479v623h144c221 5 313-101 313-320" id="aF"/><g id="n"><use transform="matrix(0.010850694444444444,0,0,0.010850694444444444,0,0)" xlink:href="#aF"/><use transform="matrix(0.010850694444444444,0,0,0.010850694444444444,14.572482638888888,0)" xlink:href="#av"/><use transform="matrix(0.010850694444444444,0,0,0.010850694444444444,21.6796875,0)" xlink:href="#aA"/><use transform="matrix(0.010850694444444444,0,0,0.010850694444444444,33.63715277777778,0)" xlink:href="#az"/><use transform="matrix(0.010850694444444444,0,0,0.010850694444444444,47.74305555555556,0)" xlink:href="#ak"/></g><g id="o"><use transform="matrix(0.010850694444444444,0,0,0.010850694444444444,0,0)" xlink:href="#al"/><use transform="matrix(0.010850694444444444,0,0,0.010850694444444444,12.510850694444445,0)" xlink:href="#am"/><use transform="matrix(0.010850694444444444,0,0,0.010850694444444444,26.84461805555556,0)" xlink:href="#aB"/></g><path fill="#333" d="M442-233C435-92 546-78 688-86V0H55v-86c123 7 195-27 195-147v-768H63v-97h187v-102c4-240 124-377 362-377 124 0 225 14 272 85 33 50 8 123-32 144-31 17-72 29-121 29-2-96-37-164-135-164-176 0-152 207-154 385h289v97H442v768" id="aG"/><path fill="#333" d="M51-481v-154h533v154H51" id="aH"/><g id="p"><use transform="matrix(0.010850694444444444,0,0,0.010850694444444444,0,0)" xlink:href="#ag"/><use transform="matrix(0.010850694444444444,0,0,0.010850694444444444,6.890190972222222,0)" xlink:href="#ai"/><use transform="matrix(0.010850694444444444,0,0,0.010850694444444444,18.782552083333332,0)" xlink:href="#aG"/><use transform="matrix(0.010850694444444444,0,0,0.010850694444444444,26.985677083333332,0)" xlink:href="#ak"/><use transform="matrix(0.010850694444444444,0,0,0.010850694444444444,34.36414930555556,0)" xlink:href="#aH"/><use transform="matrix(0.010850694444444444,0,0,0.010850694444444444,41.25434027777778,0)" xlink:href="#an"/><use transform="matrix(0.010850694444444444,0,0,0.010850694444444444,51.28038194444444,0)" xlink:href="#av"/><use transform="matrix(0.010850694444444444,0,0,0.010850694444444444,58.38758680555555,0)" xlink:href="#aB"/><use transform="matrix(0.010850694444444444,0,0,0.010850694444444444,72.02690972222223,0)" xlink:href="#ai"/><use transform="matrix(0.010850694444444444,0,0,0.010850694444444444,83.91927083333334,0)" xlink:href="#aB"/></g><g id="q"><use transform="matrix(0.010850694444444444,0,0,0.010850694444444444,0,0)" xlink:href="#aj"/><use transform="matrix(0.010850694444444444,0,0,0.010850694444444444,10.9375,0)" xlink:href="#al"/><use transform="matrix(0.010850694444444444,0,0,0.010850694444444444,23.448350694444443,0)" xlink:href="#am"/><use transform="matrix(0.010850694444444444,0,0,0.010850694444444444,37.78211805555556,0)" xlink:href="#aj"/><use transform="matrix(0.010850694444444444,0,0,0.010850694444444444,48.71961805555556,0)" xlink:href="#ai"/><use transform="matrix(0.010850694444444444,0,0,0.010850694444444444,60.61197916666667,0)" xlink:href="#ah"/><use transform="matrix(0.010850694444444444,0,0,0.010850694444444444,71.08289930555556,0)" xlink:href="#an"/></g><path fill="#333" d="M440-86c136 9 226-14 226-147v-168H35v-84l633-977h194v946h254v115H862v168c-3 120 73 154 195 147V0H440v-86zm226-430c1-270-5-547 14-803-151 283-331 537-498 803h484" id="aI"/><g id="r"><use transform="matrix(0.010850694444444444,0,0,0.010850694444444444,0,0)" xlink:href="#aI"/><use transform="matrix(0.010850694444444444,0,0,0.010850694444444444,12.42404513888889,0)" xlink:href="#ar"/><use transform="matrix(0.010850694444444444,0,0,0.010850694444444444,24.84809027777778,0)" xlink:href="#aD"/><use transform="matrix(0.010850694444444444,0,0,0.010850694444444444,37.27213541666667,0)" xlink:href="#at"/></g><path fill="#333" d="M322-226C292-111 376-75 500-86V0H0v-86c136 16 160-66 195-160l454-1216h160l463 1267c24 75 65 118 172 109V0H881v-86c113 10 195-27 165-133-27-93-63-180-94-270H414c-30 88-68 171-92 263zm593-366c-76-225-168-445-229-682-56 246-156 455-233 682h462" id="aJ"/><g id="s"><use transform="matrix(0.010850694444444444,0,0,0.010850694444444444,0,0)" xlink:href="#aJ"/><use transform="matrix(0.010850694444444444,0,0,0.010850694444444444,15.668402777777777,0)" xlink:href="#am"/><use transform="matrix(0.010850694444444444,0,0,0.010850694444444444,30.00217013888889,0)" xlink:href="#al"/><use transform="matrix(0.010850694444444444,0,0,0.010850694444444444,42.51302083333333,0)" xlink:href="#ag"/><use transform="matrix(0.010850694444444444,0,0,0.010850694444444444,49.186197916666664,0)" xlink:href="#ax"/><use transform="matrix(0.010850694444444444,0,0,0.010850694444444444,61.5234375,0)" xlink:href="#an"/><use transform="matrix(0.010850694444444444,0,0,0.010850694444444444,71.54947916666667,0)" xlink:href="#ai"/><use transform="matrix(0.010850694444444444,0,0,0.010850694444444444,83.44184027777779,0)" xlink:href="#an"/></g><g id="t"><use transform="matrix(0.010850694444444444,0,0,0.010850694444444444,0,0)" xlink:href="#aj"/><use transform="matrix(0.010850694444444444,0,0,0.010850694444444444,10.9375,0)" xlink:href="#af"/><use transform="matrix(0.010850694444444444,0,0,0.010850694444444444,23.763020833333332,0)" xlink:href="#az"/><use transform="matrix(0.010850694444444444,0,0,0.010850694444444444,37.86892361111111,0)" xlink:href="#af"/><use transform="matrix(0.010850694444444444,0,0,0.010850694444444444,50.69444444444444,0)" xlink:href="#ah"/><use transform="matrix(0.010850694444444444,0,0,0.010850694444444444,61.16536458333333,0)" xlink:href="#ak"/></g><path fill="#333" d="M528-1483c243 0 416 104 416 342 0 196-101 308-198 428-150 186-330 369-490 549h473c127 2 162-84 180-190h86L985 0H104v-150c155-184 338-374 480-565 86-116 153-219 153-405 0-153-57-260-209-260-177 0-225 129-225 305-102 0-176-31-176-133 0-206 182-275 401-275" id="aK"/><path fill="#333" d="M934-1279c156 241 159 841 0 1092C859-69 752 20 573 20 184 20 92-334 92-735c0-318 66-577 264-695 114-68 314-71 428 0 59 37 108 87 150 151zm-486-51c-167 147-156 561-129 868 13 142 51 258 129 328 64 58 188 58 251 0 125-116 141-350 141-599s-14-481-140-597c-62-58-189-56-252 0" id="aL"/><g id="u"><use transform="matrix(0.010850694444444444,0,0,0.010850694444444444,0,0)" xlink:href="#aI"/><use transform="matrix(0.010850694444444444,0,0,0.010850694444444444,12.42404513888889,0)" xlink:href="#aK"/><use transform="matrix(0.010850694444444444,0,0,0.010850694444444444,24.84809027777778,0)" xlink:href="#aL"/><use transform="matrix(0.010850694444444444,0,0,0.010850694444444444,37.27213541666667,0)" xlink:href="#at"/></g><path fill="#333" d="M272-1229c4-120-72-154-194-147v-86h1032l10 358h-106c-7-141-39-256-191-256H479v545h494v100H479v613h395c120 0 178-65 195-168l14-88h107L1176 0H78v-86c117 6 194-21 194-137v-1006" id="aM"/><path fill="#333" d="M569-1012c-63 1-123 4-123 60 0 43 23 60 48 94l135 184c47-72 105-140 143-219 9-21 14-40 14-59 0-56-58-59-116-60v-86h448v86c-127-7-170 57-225 131L682-600l301 405c54 66 89 110 191 109V0H645v-86c110 6 163-43 118-118-57-95-135-185-200-275-60 87-128 167-180 261-10 19-18 42-18 68 0 62 57 62 133 64V0H10v-86c134 8 184-56 242-131l258-334-258-352c-56-60-97-113-203-109v-86h520v86" id="aN"/><path fill="#333" d="M887-864c2-112-62-153-174-148v-86h366v875c-3 108 66 141 174 137V0H928l-27-166h-10C829-49 733 21 559 20c-245-1-338-153-338-401v-491c2-108-66-143-174-140v-86h367v707c-1 168 46 283 215 280 191-4 258-139 258-331v-422" id="aO"/><g id="v"><use transform="matrix(0.010850694444444444,0,0,0.010850694444444444,0,0)" xlink:href="#aM"/><use transform="matrix(0.010850694444444444,0,0,0.010850694444444444,13.84548611111111,0)" xlink:href="#aN"/><use transform="matrix(0.010850694444444444,0,0,0.010850694444444444,26.24782986111111,0)" xlink:href="#aj"/><use transform="matrix(0.010850694444444444,0,0,0.010850694444444444,37.185329861111114,0)" xlink:href="#ag"/><use transform="matrix(0.010850694444444444,0,0,0.010850694444444444,44.075520833333336,0)" xlink:href="#aO"/><use transform="matrix(0.010850694444444444,0,0,0.010850694444444444,58.18142361111112,0)" xlink:href="#aB"/><use transform="matrix(0.010850694444444444,0,0,0.010850694444444444,71.82074652777779,0)" xlink:href="#ai"/><use transform="matrix(0.010850694444444444,0,0,0.010850694444444444,83.7131076388889,0)" xlink:href="#aB"/></g><g id="w"><use transform="matrix(0.010850694444444444,0,0,0.010850694444444444,0,0)" xlink:href="#aC"/><use transform="matrix(0.010850694444444444,0,0,0.010850694444444444,12.42404513888889,0)" xlink:href="#aq"/><use transform="matrix(0.010850694444444444,0,0,0.010850694444444444,24.84809027777778,0)" xlink:href="#at"/></g><path fill="#333" d="M371-432c-187 0-271-106-271-297 0-192 84-297 271-297 184 0 270 106 270 297 0 190-86 297-270 297" id="aP"/><use transform="matrix(0.010850694444444444,0,0,0.010850694444444444,0,0)" xlink:href="#aP" id="x"/><path fill="#333" d="M1505-1376c-122-7-194 27-194 147V0h-146L397-1180v947c-3 120 73 154 195 147V0H78v-86c122 7 194-27 194-147v-1004c3-115-76-146-194-139v-86h375l733 1132v-907c3-116-76-146-195-139v-86h514v86" id="aQ"/><path fill="#333" d="M946-553c0-230-32-430-254-434-242-4-278 193-278 436s40 440 280 440c221 0 252-212 252-442zm-219-565c321 0 418 237 418 567 0 331-96 571-418 571-163 0-254-75-313-180h-8c7 140 10 280 8 428-2 108 66 142 174 138v86H37v-86c118 6 184-32 184-148V-872c3-116-76-146-194-140v-86h358l21 185h8c57-116 142-205 313-205" id="aR"/><g id="y"><use transform="matrix(0.010850694444444444,0,0,0.010850694444444444,0,0)" xlink:href="#aQ"/><use transform="matrix(0.010850694444444444,0,0,0.010850694444444444,16.742621527777775,0)" xlink:href="#af"/><use transform="matrix(0.010850694444444444,0,0,0.010850694444444444,29.568142361111104,0)" xlink:href="#am"/><use transform="matrix(0.010850694444444444,0,0,0.010850694444444444,43.901909722222214,0)" xlink:href="#aH"/><use transform="matrix(0.010850694444444444,0,0,0.010850694444444444,50.792100694444436,0)" xlink:href="#aR"/><use transform="matrix(0.010850694444444444,0,0,0.010850694444444444,64.4314236111111,0)" xlink:href="#ah"/><use transform="matrix(0.010850694444444444,0,0,0.010850694444444444,74.90234374999999,0)" xlink:href="#av"/><use transform="matrix(0.010850694444444444,0,0,0.010850694444444444,82.0095486111111,0)" xlink:href="#aw"/><use transform="matrix(0.010850694444444444,0,0,0.010850694444444444,103.00564236111111,0)" xlink:href="#al"/><use transform="matrix(0.010850694444444444,0,0,0.010850694444444444,115.51649305555556,0)" xlink:href="#ah"/><use transform="matrix(0.010850694444444444,0,0,0.010850694444444444,126.20442708333331,0)" xlink:href="#ax"/></g><g id="z"><use transform="matrix(0.010850694444444444,0,0,0.010850694444444444,0,0)" xlink:href="#ak"/><use transform="matrix(0.010850694444444444,0,0,0.010850694444444444,7.823350694444444,0)" xlink:href="#aO"/><use transform="matrix(0.010850694444444444,0,0,0.010850694444444444,21.92925347222222,0)" xlink:href="#aw"/><use transform="matrix(0.010850694444444444,0,0,0.010850694444444444,42.92534722222222,0)" xlink:href="#af"/><use transform="matrix(0.010850694444444444,0,0,0.010850694444444444,55.75086805555555,0)" xlink:href="#ah"/><use transform="matrix(0.010850694444444444,0,0,0.010850694444444444,66.22178819444444,0)" xlink:href="#an"/></g><g id="A"><use transform="matrix(0.010850694444444444,0,0,0.010850694444444444,0,0)" xlink:href="#as"/><use transform="matrix(0.010850694444444444,0,0,0.010850694444444444,12.42404513888889,0)" xlink:href="#at"/></g><path fill="#333" d="M1649-233c-4 120 72 154 194 147V0h-545v-86c102 5 154-32 154-129v-1094L983 0H872L397-1305v1072c-4 108 46 153 154 147V0H78v-86c117 6 194-21 194-137v-1014c3-115-76-146-194-139v-86h467L969-291l420-1171h454v86c-122-7-194 27-194 147v996" id="aS"/><g id="B"><use transform="matrix(0.010850694444444444,0,0,0.010850694444444444,0,0)" xlink:href="#aS"/><use transform="matrix(0.010850694444444444,0,0,0.010850694444444444,20.84418402777778,0)" xlink:href="#av"/><use transform="matrix(0.010850694444444444,0,0,0.010850694444444444,27.95138888888889,0)" xlink:href="#an"/><use transform="matrix(0.010850694444444444,0,0,0.010850694444444444,37.97743055555556,0)" xlink:href="#an"/><use transform="matrix(0.010850694444444444,0,0,0.010850694444444444,48.00347222222222,0)" xlink:href="#av"/><use transform="matrix(0.010850694444444444,0,0,0.010850694444444444,55.11067708333333,0)" xlink:href="#am"/><use transform="matrix(0.010850694444444444,0,0,0.010850694444444444,69.44444444444444,0)" xlink:href="#aA"/></g><g id="C"><use transform="matrix(0.010850694444444444,0,0,0.010850694444444444,0,0)" xlink:href="#aA"/><use transform="matrix(0.010850694444444444,0,0,0.010850694444444444,11.74045138888889,0)" xlink:href="#ai"/><use transform="matrix(0.010850694444444444,0,0,0.010850694444444444,23.6328125,0)" xlink:href="#am"/><use transform="matrix(0.010850694444444444,0,0,0.010850694444444444,37.966579861111114,0)" xlink:href="#af"/><use transform="matrix(0.010850694444444444,0,0,0.010850694444444444,50.79210069444444,0)" xlink:href="#aw"/><use transform="matrix(0.010850694444444444,0,0,0.010850694444444444,71.78819444444444,0)" xlink:href="#av"/><use transform="matrix(0.010850694444444444,0,0,0.010850694444444444,78.89539930555556,0)" xlink:href="#aj"/><use transform="matrix(0.010850694444444444,0,0,0.010850694444444444,89.83289930555556,0)" xlink:href="#an"/></g><path fill="#333" d="M229-252c41 91 108 162 238 162 113 0 197-51 251-152s84-255 91-460c-66 78-158 139-301 139-263 0-404-149-404-416 0-232 93-392 254-467 108-51 268-50 376 3 204 100 289 335 286 648-3 379-104 676-376 787-53 22-113 31-179 31-160 0-287-34-297-177-3-47 29-87 61-98zm86-747c0 188 54 318 238 315 135-2 218-70 258-170-2-161-24-294-77-393-39-72-94-123-191-123-73 0-129 32-169 95s-59 155-59 276" id="aT"/><g id="D"><use transform="matrix(0.010850694444444444,0,0,0.010850694444444444,0,0)" xlink:href="#aI"/><use transform="matrix(0.010850694444444444,0,0,0.010850694444444444,12.42404513888889,0)" xlink:href="#aT"/><use transform="matrix(0.010850694444444444,0,0,0.010850694444444444,24.84809027777778,0)" xlink:href="#at"/></g><g id="E"><use transform="matrix(0.010850694444444444,0,0,0.010850694444444444,0,0)" xlink:href="#af"/><use transform="matrix(0.010850694444444444,0,0,0.010850694444444444,12.825520833333332,0)" xlink:href="#ak"/><use transform="matrix(0.010850694444444444,0,0,0.010850694444444444,20.648871527777775,0)" xlink:href="#az"/><use transform="matrix(0.010850694444444444,0,0,0.010850694444444444,34.75477430555555,0)" xlink:href="#ai"/><use transform="matrix(0.010850694444444444,0,0,0.010850694444444444,46.64713541666666,0)" xlink:href="#ah"/></g><g id="F"><use transform="matrix(0.010850694444444444,0,0,0.010850694444444444,0,0)" xlink:href="#aj"/><use transform="matrix(0.010850694444444444,0,0,0.010850694444444444,10.9375,0)" xlink:href="#al"/><use transform="matrix(0.010850694444444444,0,0,0.010850694444444444,23.448350694444443,0)" xlink:href="#am"/><use transform="matrix(0.010850694444444444,0,0,0.010850694444444444,37.78211805555556,0)" xlink:href="#aj"/><use transform="matrix(0.010850694444444444,0,0,0.010850694444444444,48.71961805555556,0)" xlink:href="#ai"/><use transform="matrix(0.010850694444444444,0,0,0.010850694444444444,60.61197916666667,0)" xlink:href="#ah"/></g><g id="G"><use transform="matrix(0.010850694444444444,0,0,0.010850694444444444,0,0)" xlink:href="#an"/><use transform="matrix(0.010850694444444444,0,0,0.010850694444444444,10.026041666666666,0)" xlink:href="#av"/><use transform="matrix(0.010850694444444444,0,0,0.010850694444444444,17.13324652777778,0)" xlink:href="#ak"/><use transform="matrix(0.010850694444444444,0,0,0.010850694444444444,24.739583333333332,0)" xlink:href="#ai"/><use transform="matrix(0.010850694444444444,0,0,0.010850694444444444,36.63194444444444,0)" xlink:href="#an"/></g><g id="H"><use transform="matrix(0.010850694444444444,0,0,0.010850694444444444,0,0)" xlink:href="#aE"/><use transform="matrix(0.010850694444444444,0,0,0.010850694444444444,12.42404513888889,0)" xlink:href="#aI"/><use transform="matrix(0.010850694444444444,0,0,0.010850694444444444,24.84809027777778,0)" xlink:href="#ar"/><use transform="matrix(0.010850694444444444,0,0,0.010850694444444444,37.27213541666667,0)" xlink:href="#at"/></g><g id="I"><use transform="matrix(0.010850694444444444,0,0,0.010850694444444444,0,0)" xlink:href="#aF"/><use transform="matrix(0.010850694444444444,0,0,0.010850694444444444,14.127604166666666,0)" xlink:href="#ai"/><use transform="matrix(0.010850694444444444,0,0,0.010850694444444444,26.01996527777778,0)" xlink:href="#aj"/><use transform="matrix(0.010850694444444444,0,0,0.010850694444444444,36.95746527777778,0)" xlink:href="#ak"/><use transform="matrix(0.010850694444444444,0,0,0.010850694444444444,44.78081597222222,0)" xlink:href="#al"/><use transform="matrix(0.010850694444444444,0,0,0.010850694444444444,57.291666666666664,0)" xlink:href="#ag"/></g><g id="J"><use transform="matrix(0.010850694444444444,0,0,0.010850694444444444,0,0)" xlink:href="#aD"/><use transform="matrix(0.010850694444444444,0,0,0.010850694444444444,12.42404513888889,0)" xlink:href="#aC"/><use transform="matrix(0.010850694444444444,0,0,0.010850694444444444,24.84809027777778,0)" xlink:href="#at"/></g><path fill="#333" d="M307-86c126 7 215-13 215-137v-1137c-117 7-264-23-322 50-39 48-42 130-53 206H41l10-358h1153l10 358h-106c-10-135-29-256-180-256H729v1127c-5 128 84 155 215 147V0H307v-86" id="aU"/><path fill="#333" d="M886-871c30-101-37-149-145-141v-86h439v86c-127-12-147 70-181 160L676 0H489L160-903c-24-68-57-114-152-109v-86h512v86c-124-19-174 64-133 174 84 228 172 444 229 695h7c82-248 190-477 263-728" id="aV"/><g id="K"><use transform="matrix(0.010850694444444444,0,0,0.010850694444444444,0,0)" xlink:href="#aU"/><use transform="matrix(0.010850694444444444,0,0,0.010850694444444444,13.617621527777777,0)" xlink:href="#ah"/><use transform="matrix(0.010850694444444444,0,0,0.010850694444444444,24.088541666666664,0)" xlink:href="#al"/><use transform="matrix(0.010850694444444444,0,0,0.010850694444444444,36.59939236111111,0)" xlink:href="#am"/><use transform="matrix(0.010850694444444444,0,0,0.010850694444444444,50.93315972222221,0)" xlink:href="#an"/><use transform="matrix(0.010850694444444444,0,0,0.010850694444444444,60.742187499999986,0)" xlink:href="#aV"/><use transform="matrix(0.010850694444444444,0,0,0.010850694444444444,73.39409722222221,0)" xlink:href="#ai"/><use transform="matrix(0.010850694444444444,0,0,0.010850694444444444,85.28645833333333,0)" xlink:href="#ah"/><use transform="matrix(0.010850694444444444,0,0,0.010850694444444444,95.75737847222221,0)" xlink:href="#an"/><use transform="matrix(0.010850694444444444,0,0,0.010850694444444444,105.78342013888889,0)" xlink:href="#ai"/></g><g id="L"><use transform="matrix(0.010850694444444444,0,0,0.010850694444444444,0,0)" xlink:href="#ar"/><use transform="matrix(0.010850694444444444,0,0,0.010850694444444444,12.42404513888889,0)" xlink:href="#as"/><use transform="matrix(0.010850694444444444,0,0,0.010850694444444444,24.84809027777778,0)" xlink:href="#at"/></g><g id="M"><use transform="matrix(0.010850694444444444,0,0,0.010850694444444444,0,0)" xlink:href="#aK"/><use transform="matrix(0.010850694444444444,0,0,0.010850694444444444,12.42404513888889,0)" xlink:href="#aE"/><use transform="matrix(0.010850694444444444,0,0,0.010850694444444444,24.84809027777778,0)" xlink:href="#at"/></g><path fill="#333" d="M360-981c-118-4-135 82-159 174h-86l20-291h785v84L324-117h372c118-3 127-117 150-215h86L922 0H86v-82l594-899H360" id="aW"/><g id="N"><use transform="matrix(0.010850694444444444,0,0,0.010850694444444444,0,0)" xlink:href="#aW"/><use transform="matrix(0.010850694444444444,0,0,0.010850694444444444,11.360677083333332,0)" xlink:href="#ai"/><use transform="matrix(0.010850694444444444,0,0,0.010850694444444444,23.253038194444443,0)" xlink:href="#ah"/><use transform="matrix(0.010850694444444444,0,0,0.010850694444444444,33.50694444444444,0)" xlink:href="#af"/></g><g id="O"><use transform="matrix(0.010850694444444444,0,0,0.010850694444444444,0,0)" xlink:href="#aG"/><use transform="matrix(0.010850694444444444,0,0,0.010850694444444444,7.986111111111111,0)" xlink:href="#af"/><use transform="matrix(0.010850694444444444,0,0,0.010850694444444444,20.811631944444443,0)" xlink:href="#ag"/><use transform="matrix(0.010850694444444444,0,0,0.010850694444444444,27.701822916666664,0)" xlink:href="#ag"/><use transform="matrix(0.010850694444444444,0,0,0.010850694444444444,34.592013888888886,0)" xlink:href="#af"/><use transform="matrix(0.010850694444444444,0,0,0.010850694444444444,47.20052083333333,0)" xlink:href="#ay"/><use transform="matrix(0.010850694444444444,0,0,0.010850694444444444,66.35199652777777,0)" xlink:href="#aH"/><use transform="matrix(0.010850694444444444,0,0,0.010850694444444444,73.2421875,0)" xlink:href="#aO"/><use transform="matrix(0.010850694444444444,0,0,0.010850694444444444,87.34809027777777,0)" xlink:href="#aR"/></g><g id="P"><use transform="matrix(0.010850694444444444,0,0,0.010850694444444444,0,0)" xlink:href="#aw"/><use transform="matrix(0.010850694444444444,0,0,0.010850694444444444,20.99609375,0)" xlink:href="#af"/><use transform="matrix(0.010850694444444444,0,0,0.010850694444444444,33.82161458333333,0)" xlink:href="#am"/><use transform="matrix(0.010850694444444444,0,0,0.010850694444444444,47.93836805555556,0)" xlink:href="#ak"/><use transform="matrix(0.010850694444444444,0,0,0.010850694444444444,55.76171875,0)" xlink:href="#az"/><use transform="matrix(0.010850694444444444,0,0,0.010850694444444444,69.86762152777777,0)" xlink:href="#an"/></g><g id="Q"><use transform="matrix(0.010850694444444444,0,0,0.010850694444444444,0,0)" xlink:href="#ao"/><use transform="matrix(0.010850694444444444,0,0,0.010850694444444444,7.693142361111111,0)" xlink:href="#am"/></g><g id="R"><use transform="matrix(0.010850694444444444,0,0,0.010850694444444444,0,0)" xlink:href="#aE"/><use transform="matrix(0.010850694444444444,0,0,0.010850694444444444,12.42404513888889,0)" xlink:href="#aD"/><use transform="matrix(0.010850694444444444,0,0,0.010850694444444444,24.84809027777778,0)" xlink:href="#at"/></g><path fill="#333" d="M479-233c-3 120 73 154 195 147V0H78v-86c122 7 194-27 194-147v-996c4-120-72-154-194-147v-86h596v86c-122-7-195 27-195 147v996" id="aX"/><g id="S"><use transform="matrix(0.010850694444444444,0,0,0.010850694444444444,0,0)" xlink:href="#aX"/><use transform="matrix(0.010850694444444444,0,0,0.010850694444444444,8.159722222222221,0)" xlink:href="#aw"/><use transform="matrix(0.010850694444444444,0,0,0.010850694444444444,28.938802083333332,0)" xlink:href="#aR"/><use transform="matrix(0.010850694444444444,0,0,0.010850694444444444,42.578125,0)" xlink:href="#aO"/><use transform="matrix(0.010850694444444444,0,0,0.010850694444444444,56.68402777777778,0)" xlink:href="#ak"/><use transform="matrix(0.010850694444444444,0,0,0.010850694444444444,64.50737847222223,0)" xlink:href="#al"/><use transform="matrix(0.010850694444444444,0,0,0.010850694444444444,76.80121527777779,0)" xlink:href="#ak"/><use transform="matrix(0.010850694444444444,0,0,0.010850694444444444,84.62456597222223,0)" xlink:href="#av"/><use transform="matrix(0.010850694444444444,0,0,0.010850694444444444,91.73177083333334,0)" xlink:href="#af"/><use transform="matrix(0.010850694444444444,0,0,0.010850694444444444,104.55729166666666,0)" xlink:href="#am"/></g><g id="T"><use transform="matrix(0.010850694444444444,0,0,0.010850694444444444,0,0)" xlink:href="#aG"/><use transform="matrix(0.010850694444444444,0,0,0.010850694444444444,7.986111111111111,0)" xlink:href="#af"/><use transform="matrix(0.010850694444444444,0,0,0.010850694444444444,20.811631944444443,0)" xlink:href="#ah"/></g><path fill="#333" d="M295 14c-88 0-129-49-129-139 0-91 41-139 129-139 87 0 129 49 129 139-1 89-42 139-129 139zm0-843c-88 0-129-50-129-140 0-91 41-139 129-139 87 0 129 49 129 139 0 89-42 140-129 140" id="aY"/><g id="U"><use transform="matrix(0.010850694444444444,0,0,0.010850694444444444,0,0)" xlink:href="#aw"/><use transform="matrix(0.010850694444444444,0,0,0.010850694444444444,20.99609375,0)" xlink:href="#av"/><use transform="matrix(0.010850694444444444,0,0,0.010850694444444444,28.10329861111111,0)" xlink:href="#an"/><use transform="matrix(0.010850694444444444,0,0,0.010850694444444444,38.12934027777778,0)" xlink:href="#an"/><use transform="matrix(0.010850694444444444,0,0,0.010850694444444444,48.15538194444444,0)" xlink:href="#av"/><use transform="matrix(0.010850694444444444,0,0,0.010850694444444444,55.26258680555556,0)" xlink:href="#am"/><use transform="matrix(0.010850694444444444,0,0,0.010850694444444444,69.59635416666667,0)" xlink:href="#aA"/><use transform="matrix(0.010850694444444444,0,0,0.010850694444444444,81.55381944444444,0)" xlink:href="#aY"/></g><path fill="#333" d="M674-1376c-119-7-195 23-195 139v1135h404c178-1 180-179 200-338h107L1176 0H78v-86c122 7 194-27 194-147v-996c4-120-72-154-194-147v-86h596v86" id="aZ"/><g id="V"><use transform="matrix(0.010850694444444444,0,0,0.010850694444444444,0,0)" xlink:href="#aZ"/><use transform="matrix(0.010850694444444444,0,0,0.010850694444444444,13.84548611111111,0)" xlink:href="#ax"/><use transform="matrix(0.010850694444444444,0,0,0.010850694444444444,26.399739583333332,0)" xlink:href="#aw"/><use transform="matrix(0.010850694444444444,0,0,0.010850694444444444,47.17881944444444,0)" xlink:href="#aR"/><use transform="matrix(0.010850694444444444,0,0,0.010850694444444444,60.81814236111111,0)" xlink:href="#az"/><use transform="matrix(0.010850694444444444,0,0,0.010850694444444444,74.92404513888889,0)" xlink:href="#af"/><use transform="matrix(0.010850694444444444,0,0,0.010850694444444444,87.53255208333333,0)" xlink:href="#aV"/><use transform="matrix(0.010850694444444444,0,0,0.010850694444444444,99.71788194444444,0)" xlink:href="#al"/><use transform="matrix(0.010850694444444444,0,0,0.010850694444444444,112.22873263888889,0)" xlink:href="#an"/><use transform="matrix(0.010850694444444444,0,0,0.010850694444444444,122.25477430555556,0)" xlink:href="#aj"/><use transform="matrix(0.010850694444444444,0,0,0.010850694444444444,133.19227430555554,0)" xlink:href="#aO"/><use transform="matrix(0.010850694444444444,0,0,0.010850694444444444,147.29817708333331,0)" xlink:href="#ag"/><use transform="matrix(0.010850694444444444,0,0,0.010850694444444444,154.18836805555554,0)" xlink:href="#al"/><use transform="matrix(0.010850694444444444,0,0,0.010850694444444444,166.69921875,0)" xlink:href="#ah"/></g><g id="W"><use transform="matrix(0.010850694444444444,0,0,0.010850694444444444,0,0)" xlink:href="#av"/><use transform="matrix(0.010850694444444444,0,0,0.010850694444444444,7.107204861111111,0)" xlink:href="#am"/><use transform="matrix(0.010850694444444444,0,0,0.010850694444444444,21.223958333333332,0)" xlink:href="#aV"/><use transform="matrix(0.010850694444444444,0,0,0.010850694444444444,33.40928819444444,0)" xlink:href="#al"/><use transform="matrix(0.010850694444444444,0,0,0.010850694444444444,45.920138888888886,0)" xlink:href="#an"/><use transform="matrix(0.010850694444444444,0,0,0.010850694444444444,55.94618055555555,0)" xlink:href="#av"/><use transform="matrix(0.010850694444444444,0,0,0.010850694444444444,63.05338541666666,0)" xlink:href="#af"/><use transform="matrix(0.010850694444444444,0,0,0.010850694444444444,75.87890624999999,0)" xlink:href="#am"/></g><g id="X"><use transform="matrix(0.010850694444444444,0,0,0.010850694444444444,0,0)" xlink:href="#aI"/><use transform="matrix(0.010850694444444444,0,0,0.010850694444444444,12.42404513888889,0)" xlink:href="#aI"/><use transform="matrix(0.010850694444444444,0,0,0.010850694444444444,24.84809027777778,0)" xlink:href="#at"/></g><use transform="matrix(0.010850694444444444,0,0,0.010850694444444444,0,0)" xlink:href="#aS" id="Y"/><g id="Z"><use transform="matrix(0.010850694444444444,0,0,0.010850694444444444,0,0)" xlink:href="#an"/><use transform="matrix(0.010850694444444444,0,0,0.010850694444444444,10.026041666666666,0)" xlink:href="#ak"/><use transform="matrix(0.010850694444444444,0,0,0.010850694444444444,17.84939236111111,0)" xlink:href="#al"/><use transform="matrix(0.010850694444444444,0,0,0.010850694444444444,30.36024305555556,0)" xlink:href="#aA"/><use transform="matrix(0.010850694444444444,0,0,0.010850694444444444,42.10069444444444,0)" xlink:href="#ai"/></g><g id="aa"><use transform="matrix(0.010850694444444444,0,0,0.010850694444444444,0,0)" xlink:href="#aC"/><use transform="matrix(0.010850694444444444,0,0,0.010850694444444444,12.42404513888889,0)" xlink:href="#aE"/><use transform="matrix(0.010850694444444444,0,0,0.010850694444444444,24.84809027777778,0)" xlink:href="#at"/></g><path fill="#333" d="M1010-391c0 288-209 411-504 411-227 0-400-72-408-288-3-85 58-140 148-138 13 184 83 323 276 326 176 3 296-86 293-258-4-208-164-249-317-319-197-90-377-181-377-455 0-256 189-371 448-371 165 0 292 46 357 143 39 57 33 148-18 186-30 22-68 34-117 34-4-156-72-260-230-260-155 0-250 80-250 233 0 217 160 262 318 332 152 68 291 135 355 283 17 42 26 88 26 141" id="ba"/><g id="ab"><use transform="matrix(0.010850694444444444,0,0,0.010850694444444444,0,0)" xlink:href="#ba"/><use transform="matrix(0.010850694444444444,0,0,0.010850694444444444,11.870659722222221,0)" xlink:href="#aO"/><use transform="matrix(0.010850694444444444,0,0,0.010850694444444444,25.9765625,0)" xlink:href="#ah"/><use transform="matrix(0.010850694444444444,0,0,0.010850694444444444,36.23046875,0)" xlink:href="#aA"/><use transform="matrix(0.010850694444444444,0,0,0.010850694444444444,48.18793402777778,0)" xlink:href="#av"/><use transform="matrix(0.010850694444444444,0,0,0.010850694444444444,55.295138888888886,0)" xlink:href="#aj"/><use transform="matrix(0.010850694444444444,0,0,0.010850694444444444,66.23263888888889,0)" xlink:href="#al"/><use transform="matrix(0.010850694444444444,0,0,0.010850694444444444,78.74348958333333,0)" xlink:href="#ag"/></g><g id="ac"><use transform="matrix(0.010850694444444444,0,0,0.010850694444444444,0,0)" xlink:href="#aw"/><use transform="matrix(0.010850694444444444,0,0,0.010850694444444444,20.99609375,0)" xlink:href="#al"/><use transform="matrix(0.010850694444444444,0,0,0.010850694444444444,33.50694444444444,0)" xlink:href="#ah"/><use transform="matrix(0.010850694444444444,0,0,0.010850694444444444,43.76085069444444,0)" xlink:href="#aA"/><use transform="matrix(0.010850694444444444,0,0,0.010850694444444444,55.71831597222222,0)" xlink:href="#av"/><use transform="matrix(0.010850694444444444,0,0,0.010850694444444444,62.82552083333333,0)" xlink:href="#am"/></g><g id="ad"><use transform="matrix(0.010850694444444444,0,0,0.010850694444444444,0,0)" xlink:href="#aD"/><use transform="matrix(0.010850694444444444,0,0,0.010850694444444444,12.42404513888889,0)" xlink:href="#aT"/><use transform="matrix(0.010850694444444444,0,0,0.010850694444444444,24.84809027777778,0)" xlink:href="#at"/></g></defs></g></svg>